<?xml version="1.0" encoding="utf-8"?>
<!-- Generator: Adobe Illustrator 15.1.0, SVG Export Plug-In . SVG Version: 6.00 Build 0)  -->
<!DOCTYPE svg PUBLIC "-//W3C//DTD SVG 1.1//EN" "http://www.w3.org/Graphics/SVG/1.1/DTD/svg11.dtd">
<svg version="1.1" id="Layer_1" xmlns="http://www.w3.org/2000/svg" xmlns:xlink="http://www.w3.org/1999/xlink" x="0px" y="0px"
	 width="1000px" height="600px" viewBox="0 0 1000 600" enable-background="new 0 0 1000 600" xml:space="preserve">
<g>
	<polygon fill="#C1272D" points="83.467,123.228 217.438,119 212.206,209.474 73,206.937 118.006,164.659 	"/>
	<path d="M83.078,123.053l17.111-1.117l16.733-0.956c11.156-0.612,22.309-1.333,33.468-1.855l66.953-3.159l3.303-0.156l-0.176,3.366
		l-4.744,90.502l-0.177,3.375l-3.408-0.053c-5.8-0.09-11.602-0.121-17.402-0.259l-17.399-0.406l-34.798-0.813l-34.798-0.813
		c-11.6-0.222-23.197-0.638-34.794-1.034l-6.77-0.231l4.945-4.502l22.831-20.79l11.416-10.395l5.708-5.197l5.76-5.142l-0.142,2.333
		l-16.744-21.154l-8.358-10.588L83.078,123.053z M83.884,123.415l34.311,41.087l0.148,0.177l-0.168,0.159l-44.971,42.314
		l-0.197-0.512l139.207,2.445l-0.394,0.365l5.309-90.469l0.321,0.33L83.884,123.415z"/>
</g>
<polygon fill="#5B0B15" stroke="#000000" stroke-width="4" stroke-miterlimit="10" points="146.704,197.635 217.438,119 
	212.206,233.148 "/>
<g>
	<polygon fill="#C1272D" points="971.031,123.228 837.06,119 842.293,209.474 981.498,206.937 936.492,164.659 	"/>
	<path d="M970.584,123.428l-16.323,0.034l-16.76-0.101c-11.173-0.093-22.349-0.077-33.519-0.258l-67.019-1.068l3.127-3.21
		l5.722,90.445l-3.584-3.322c5.8-0.122,11.599-0.303,17.399-0.375l17.402-0.228l34.805-0.456l34.805-0.456
		c11.601-0.201,23.205-0.208,34.809-0.235l-1.825,4.733l-22.175-21.487l-11.088-10.744l-5.543-5.372l-5.492-5.428l-1.173-1.159
		l1.03-1.174l17.796-20.278l8.912-10.127L970.584,123.428z M971.447,123.041l-34.767,41.775l-0.021-0.335l45.041,42.24l0.531,0.498
		l-0.729,0.014L842.3,209.861l-0.373,0.007l-0.021-0.373l-5.157-90.478l-0.02-0.341l0.341,0.011L971.447,123.041z"/>
</g>
<g>
	<polygon fill="#5B0B15" points="907.795,197.635 837.06,119 842.293,233.148 	"/>
	<path d="M907.455,197.575c-6.232-6.127-12.304-12.399-18.411-18.639c-3.075-3.161-6.185-6.292-9.233-9.477l-9.137-9.564
		c-6.105-6.363-12.092-12.833-18.143-19.245c-6.035-6.427-11.976-12.938-17.969-19.403l5.852-2.4
		c0.602,9.505,0.992,19.019,1.496,28.528l0.7,14.267l0.593,14.271c0.396,9.514,0.814,19.027,1.093,28.547
		c0.304,9.519,0.66,19.035,0.855,28.558l-4.223-2.384l16.578-8.505l16.644-8.384l16.742-8.201l8.373-4.098L907.455,197.575z
		 M908.112,197.69l-65.676,35.723l-0.422,0.229l-0.022-0.48l-2.693-57.07l-2.583-57.076l-0.044-0.963l0.644,0.717L908.112,197.69z"
		/>
</g>
<path fill="#C1272D" stroke="#000000" stroke-width="4" stroke-miterlimit="10" d="M722,472"/>
<g>
	<rect x="146.704" y="197.635" fill="#C1272D" width="760.652" height="130.257"/>
	<path d="M907.556,328.092l-760.852,1.226l-1.423,0.002l-0.001-1.427l-0.176-130.257l-0.002-1.593l1.602-0.007
		c63.388-0.276,126.775-0.409,190.163-0.457l190.163,0.013l190.163,0.353l190.163,0.693l1.005,0.004l-0.007,0.995L907.556,328.092z
		 M907.155,327.692l-0.797-130.057l0.998,0.999l-190.163,0.693l-190.163,0.353l-190.163,0.013
		c-63.388-0.048-126.775-0.181-190.163-0.457l1.6-1.6l-0.176,130.257l-1.424-1.425L907.155,327.692z"/>
</g>
<g>
	<polygon points="148.359,213.701 172.04,213.118 195.721,212.636 243.082,211.686 337.804,211.701 527.249,211.701 
		716.693,211.701 811.416,211.701 858.777,212.656 882.458,213.136 906.139,213.701 882.458,214.266 858.777,214.746 
		811.416,215.701 716.693,215.701 527.249,215.701 337.804,215.701 243.082,215.717 195.721,214.767 172.04,214.284 	"/>
</g>
<g>
	<path d="M102.315,135.886c8.538-0.943,17.081-1.492,25.626-1.901c4.272-0.242,8.546-0.341,12.819-0.507l12.822-0.284l12.825-0.068
		c4.276,0.054,8.551,0.031,12.828,0.16c8.553,0.177,17.108,0.497,25.668,1.214c-8.538,0.948-17.081,1.499-25.626,1.907
		c-4.272,0.244-8.546,0.337-12.819,0.506l-12.822,0.278l-12.825,0.063c-4.276-0.051-8.551-0.034-12.828-0.16
		C119.43,136.915,110.875,136.598,102.315,135.886z"/>
</g>
<g>
	<path d="M99.175,195.074c4.259-0.891,8.524-1.363,12.79-1.74c4.267-0.351,8.535-0.545,12.806-0.605
		c4.271-0.061,8.543,0.019,12.817,0.254c4.274,0.259,8.551,0.619,12.833,1.399c-4.259,0.896-8.524,1.371-12.79,1.746
		c-4.267,0.351-8.535,0.545-12.806,0.6c-4.271,0.055-8.543-0.023-12.817-0.259C107.732,196.207,103.457,195.849,99.175,195.074z"/>
</g>
<g>
	<path d="M848.644,131.501c8.727,0.104,17.447,0.316,26.171,0.47l26.161,0.67c8.719,0.25,17.455,0.154,26.151,0.87
		c4.349,0.35,8.696,0.724,13.037,1.227c4.342,0.49,8.681,1.056,13.008,1.84l-0.02,0.399c-4.383,0.361-8.756,0.504-13.125,0.571
		c-4.369,0.08-8.732,0.031-13.095-0.042c-8.725-0.13-17.41-1.072-26.112-1.669l-26.103-1.869
		c-8.698-0.692-17.398-1.327-26.094-2.069L848.644,131.501z"/>
</g>
<g>
	<path d="M901.875,191.844c4.462-0.164,8.921-0.218,13.381-0.332c4.459-0.077,8.917-0.121,13.373-0.131
		c4.457-0.018,8.927-0.381,13.367,0.068c2.221,0.191,4.439,0.472,6.655,0.827c2.216,0.356,4.429,0.79,6.634,1.44l-0.014,0.399
		c-2.246,0.495-4.483,0.772-6.719,0.972c-2.235,0.199-4.468,0.323-6.697,0.359c-4.461,0.137-8.894-0.539-13.338-0.868
		c-4.445-0.322-8.89-0.678-13.332-1.068c-4.441-0.425-8.885-0.792-13.324-1.268L901.875,191.844z"/>
</g>
<g>
	<polygon points="148.359,309.042 171.975,308.459 195.59,307.977 242.82,307.026 337.281,307.042 526.202,307.042 715.123,307.042 
		809.584,307.042 856.814,307.997 880.43,308.477 904.045,309.042 880.43,309.607 856.814,310.087 809.584,311.042 715.123,311.042 
		526.202,311.042 337.281,311.042 242.82,311.058 195.59,310.107 171.975,309.625 	"/>
</g>
</svg>
